<svg width="120" height="28" viewBox="0 0 120 28" fill="none" xmlns="http://www.w3.org/2000/svg">
<path d="M2.79933 9.74953V14.4439H0.5V16.9548H2.79933V27.1904H5.97412V16.9548H8.68383V14.4439H5.97412V9.74953H2.79933Z" fill="#242938"/>
<path d="M22.4388 20.0385V27.1892H19.264V20.2567C19.264 18.2096 18.0316 17.1185 16.609 17.1185C15.1578 17.1185 13.3521 17.9653 13.3521 20.4489V27.1904H10.1761V7.51145H13.3509V16.3819C13.9801 14.8258 16.0332 14.1166 17.3203 14.1166C20.6045 14.1166 22.4388 16.3274 22.4388 20.0385Z" fill="#242938"/>
<path d="M65.2183 20.4762C65.2183 16.4365 68.4764 13.7892 72.171 13.7892C74.3882 13.7892 76.1951 14.7713 77.3715 16.2455L75.1269 18.0199C74.4703 17.2288 73.3747 16.7366 72.2257 16.7366C70.0084 16.7366 68.4204 18.3199 68.4204 20.4762C68.4204 22.6052 70.0084 24.2431 72.2257 24.2431C73.376 24.2431 74.4703 23.7521 75.1269 22.9598L77.3715 24.7341C76.1951 26.2084 74.3882 27.1904 72.171 27.1904C68.4764 27.1904 65.2183 24.5159 65.2183 20.4762Z" fill="#242938"/>
<path d="M81.2315 19.3838C81.6145 17.4458 83.011 16.6002 84.7085 16.6002C86.488 16.6002 87.8559 17.638 88.0474 19.3838H81.2315ZM91.1949 20.3671C91.1949 16.3819 88.321 13.7892 84.6799 13.7892C81.0114 13.7892 77.9734 16.4092 77.9734 20.4762C77.9734 24.4613 80.8746 27.1904 84.6799 27.1904C87.0066 27.1904 89.2785 26.1526 90.4549 24.2977L88.3198 22.687C87.5811 23.7236 86.2393 24.3249 84.8701 24.3249C82.9538 24.3249 81.5859 23.3702 81.229 21.5959H91.1377C91.1675 21.1309 91.1949 20.7217 91.1949 20.3671Z" fill="#242938"/>
<path d="M92.1524 22.9325H95.1369C95.1369 23.8067 95.9029 24.625 97.2447 24.625C98.5032 24.625 99.3252 23.9976 99.3252 23.178C99.3252 22.4688 98.7781 22.1402 97.8193 21.922L96.1218 21.4855C93.248 20.7217 92.508 19.1929 92.508 17.5822C92.508 15.5896 94.4791 13.788 97.2709 13.788C99.5428 13.788 102.116 14.9337 102.088 17.7731H99.0504C99.0504 16.9002 98.257 16.3534 97.3529 16.3534C96.3668 16.3534 95.6828 16.9263 95.6828 17.7186C95.6828 18.3733 96.3121 18.7552 97.052 18.9188L99.1051 19.4644C101.979 20.2009 102.5 22.0025 102.5 23.1768C102.5 25.7695 99.8997 27.1892 97.2982 27.1892C94.7539 27.1904 92.2084 25.6616 92.1524 22.9325Z" fill="#242938"/>
<path d="M27.8408 9.60198C27.8408 10.6782 26.9653 11.5512 25.8859 11.5512C24.8065 11.5512 23.931 10.6782 23.931 9.60198C23.931 8.52571 24.8065 7.6528 25.8859 7.6528C26.9666 7.65156 27.8408 8.52447 27.8408 9.60198Z" fill="#242938"/>
<path d="M64.0419 9.60198C64.0419 10.6782 63.1664 11.5512 62.087 11.5512C61.0076 11.5512 60.1321 10.6782 60.1321 9.60198C60.1321 8.52571 61.0076 7.6528 62.087 7.6528C63.1664 7.65156 64.0419 8.52447 64.0419 9.60198Z" fill="#242938"/>
<path d="M27.4208 14.1172H24.248V26.8533H27.4208V14.1172Z" fill="#242938"/>
<path d="M41.811 19.7073V26.8521H38.6381V19.9253C38.6381 17.8799 37.4065 16.7896 35.9848 16.7896C34.5344 16.7896 32.7299 17.6358 32.7299 20.0901V26.8533H29.5546V14.1173H32.7274V16.1355C33.3836 14.5261 35.3808 13.7902 36.6944 13.7902C39.9779 13.7902 41.811 15.9992 41.811 19.7073Z" fill="#242938"/>
<path d="M43.4502 22.926H46.4329C46.4329 23.7994 47.1985 24.6171 48.5394 24.6171C49.7971 24.6171 50.6186 23.9902 50.6186 23.1713C50.6186 22.4626 50.0718 22.1343 49.1136 21.9163L47.4172 21.4802C44.5451 20.717 43.8056 19.1894 43.8056 17.58C43.8056 15.5891 45.7755 13.789 48.5655 13.789C50.8361 13.789 53.4074 14.9337 53.3801 17.7708H50.344C50.344 16.8986 49.5511 16.3523 48.6476 16.3523C47.662 16.3523 46.9785 16.9247 46.9785 17.7163C46.9785 18.3705 47.6073 18.7521 48.3468 18.9156L50.3986 19.4607C53.2707 20.1966 53.7915 21.9968 53.7915 23.17C53.7915 25.7606 51.1928 27.1792 48.5929 27.1792C46.0501 27.1804 43.5061 25.6528 43.4502 22.926Z" fill="#242938"/>
<path d="M58.2767 7.19043H55.1039V26.8533H58.2767V7.19043Z" fill="#242938"/>
<path d="M63.5847 14.1172H60.4118V26.8533H63.5847V14.1172Z" fill="#242938"/>
<path d="M106.105 0.265961L110.336 4.49552C110.561 4.72078 110.688 5.02687 110.688 5.34621V11.0704C110.688 11.3911 110.56 11.6985 110.332 11.9251L106.138 16.1175C106.04 16.2156 105.88 16.2143 105.783 16.1162L103.574 13.9074C103.475 13.8093 103.475 13.649 103.574 13.5509L108.101 9.02455C108.57 8.55548 108.57 7.79358 108.101 7.32318L103.574 2.79681C103.475 2.69876 103.475 2.53842 103.574 2.44037L105.749 0.265961C105.847 0.166582 106.007 0.166582 106.105 0.265961Z" fill="#8929FF"/>
<path d="M116.895 16.1149L112.664 11.8853C112.439 11.6601 112.312 11.354 112.312 11.0347V5.31043C112.312 4.98977 112.44 4.68236 112.668 4.45577L116.862 0.26331C116.96 0.165256 117.12 0.166583 117.217 0.264637L119.426 2.4735C119.525 2.57155 119.525 2.73188 119.426 2.82994L114.899 7.35631C114.43 7.82538 114.43 8.58728 114.899 9.05768L119.426 13.5841C119.525 13.6821 119.525 13.8424 119.426 13.9405L117.251 16.1149C117.153 16.213 116.993 16.213 116.895 16.1149Z" fill="#8929FF"/>
</svg>
